<?xml version="1.0" encoding="utf-8"?>
<!-- Generator: Adobe Illustrator 23.0.0, SVG Export Plug-In . SVG Version: 6.00 Build 0)  -->
<svg version="1.1" id="Layer_1" xmlns="http://www.w3.org/2000/svg" xmlns:xlink="http://www.w3.org/1999/xlink" x="0px" y="0px"
	 viewBox="0 0 1920 1080" style="enable-background:new 0 0 1920 1080;" xml:space="preserve">
<style type="text/css">
	.st0{fill:#0071BC;}
	.st1{fill:#01164F;}
</style>
<g>
	<path class="st0" d="M538.69,430.93c27.92,0,53.41,10.5,72.76,27.77l-25.29,25.29c-12.72-10.67-29.1-17.11-47-17.11
		c-18.07,0-34.6,6.57-47.36,17.43l-25.73-25.73C485.39,441.39,510.84,430.93,538.69,430.93z"/>
	<path class="st0" d="M650.1,420.04l-24.71,24.71c-22.93-20.81-53.36-33.51-86.7-33.51c-33.28,0-63.66,12.65-86.57,33.4
		l-24.26-24.26c29.18-27.17,68.28-43.8,111.3-43.8C581.99,376.58,620.95,393.07,650.1,420.04z"/>
	<path class="st0" d="M538.69,649.42c-28.03,0-53.62-10.59-72.99-27.97l25.91-25.91c12.79,10.96,29.39,17.59,47.55,17.59
		c17.99,0,34.44-6.5,47.18-17.27l25.48,25.48C592.42,638.78,566.77,649.42,538.69,649.42z"/>
	<path class="st0" d="M650.27,659.79c-29.16,27.06-68.19,43.63-111.11,43.63c-43.1,0-82.27-16.7-111.47-43.96l24.07-24.07
		c22.96,20.94,53.47,33.72,86.93,33.72c33.52,0,64.09-12.84,87.06-33.84L650.27,659.79z"/>
	<path class="st1" d="M467.3,602.85L483.14,587c-10.68-12.71-17.12-29.1-17.12-47c0-17.98,6.5-34.44,17.27-47.18l-15.77-15.77
		c-14.84,16.82-23.88,38.89-23.88,63.03C443.66,564.1,452.6,586.06,467.3,602.85z"/>
	<path class="st1" d="M397.04,540.09c0-37,14.23-70.73,37.5-96.03l-15.17-15.17c-27.06,29.16-43.63,68.19-43.63,111.11
		c0,42.83,16.5,81.8,43.46,110.94l15.08-15.08C411.16,610.59,397.04,576.96,397.04,540.09z"/>
	<path class="st0" d="M442.79,627.36l15.99-15.99c-16.87-18.98-27.14-43.95-27.14-71.27c0-27.46,10.37-52.54,27.38-71.55
		l-15.98-15.98c-21.09,23.12-33.97,53.85-33.97,87.53C409.06,573.64,421.84,604.27,442.79,627.36z"/>
	<g>
		<g>
			<path class="st0" d="M838.62,577.54v52.47c0,1.27-0.58,1.9-1.74,1.9c-0.78,0-1.65-0.45-2.62-1.36l-15.42-15.77
				c-6.59,6.89-14.06,12.01-22.4,15.36c-8.34,3.35-17.07,5.03-26.18,5.03c-10.86,0-21.52-2.54-32-7.61s-19.88-11.96-28.21-20.66
				c-8.34-8.7-15.08-18.89-20.22-30.58c-5.14-11.69-7.71-24.24-7.71-37.65c0-11.6,2.23-23.06,6.69-34.39
				c4.46-11.32,10.71-21.43,18.76-30.31c8.04-8.88,17.55-16.04,28.51-21.48c10.95-5.44,22.83-8.16,35.63-8.16
				c8.73,0,16.97,1.22,24.72,3.67c7.75,2.45,14.73,6.03,20.94,10.74l11.34-10.87c1.55-1.45,2.81-2.17,3.78-2.17
				c0.77,0,1.35,0.27,1.74,0.82c0.39,0.54,0.58,1.63,0.58,3.26v44.31c0,2.17-0.49,3.26-1.45,3.26c-0.78,0-1.45-0.9-2.04-2.72
				c-2.33-6.52-5.34-12.59-9.02-18.21c-3.69-5.62-8.05-10.42-13.09-14.41c-5.04-3.98-10.67-7.11-16.87-9.38
				c-6.21-2.26-13.09-3.4-20.65-3.4c-18.23,0-31.7,6.48-40.43,19.44c-8.73,12.96-13.09,31.4-13.09,55.32v30.45
				c0,24.83,4.26,43.68,12.8,56.54c8.53,12.87,21.62,19.3,39.27,19.3c7.75,0,14.83-1.31,21.23-3.94c6.4-2.62,12.22-6.3,17.45-11.01
				c5.24-4.71,9.89-10.28,13.96-16.72c4.07-6.43,7.85-13.36,11.34-20.8c0.97-1.99,1.94-2.99,2.91-2.99
				C838.14,574.82,838.62,575.73,838.62,577.54z"/>
			<path class="st0" d="M926.76,625.66v4.35h-65.74v-4.35h20.36V451.68h-20.36v-4.35h45.38v178.33H926.76z"/>
			<path class="st0" d="M982.16,521.4c5.53-1.18,11.29-1.77,17.31-1.77c12.8,0,22.3,2.13,28.51,6.39c6.2,4.26,9.31,10.29,9.31,18.08
				v65.79c0,5.26,0.39,9.38,1.16,12.37c0.77,2.99,3.1,4.49,6.98,4.49c2.71,0,5.23-0.95,7.56-2.85c2.33-1.9,4.26-4.39,5.82-7.48
				c0.77-1.45,1.45-2.18,2.04-2.18c0.58,0,0.87,0.45,0.87,1.36c0,1.09-0.44,2.68-1.31,4.76c-0.87,2.09-2.38,4.12-4.51,6.12
				c-2.14,2-4.9,3.71-8.29,5.17c-3.4,1.45-7.61,2.17-12.65,2.17c-7.76,0-13.19-1.59-16.29-4.76c-3.1-3.17-4.94-6.66-5.53-10.47
				c-1.16,1.63-2.72,3.31-4.65,5.03c-1.94,1.72-4.32,3.36-7.13,4.89c-2.81,1.54-6.01,2.81-9.6,3.81c-3.59,0.99-7.61,1.49-12.07,1.49
				c-4.27,0-8.29-0.45-12.07-1.36c-3.78-0.91-7.13-2.31-10.03-4.21s-5.19-4.44-6.84-7.61c-1.65-3.17-2.47-6.93-2.47-11.28
				c0-5.98,1.65-11.37,4.94-16.17c3.29-4.8,7.85-8.84,13.67-12.1c5.82-3.26,12.6-5.75,20.36-7.48c7.75-1.72,16.09-2.58,25.02-2.58
				v-32.08c0-6.16-1.75-10.33-5.24-12.5c-3.49-2.17-8.24-3.26-14.25-3.26c-2.14,0-4.32,0.18-6.54,0.54
				c-2.23,0.37-4.22,0.82-5.96,1.36c-1.74,0.54-3.2,1.18-4.36,1.9c-1.16,0.73-1.75,1.45-1.75,2.17c0,0.54,0.29,1,0.87,1.36
				c0.58,0.37,1.35,1,2.33,1.9c1.35,1.27,2.28,2.58,2.76,3.94c0.48,1.36,0.73,2.68,0.73,3.94c0,2.72-1.02,4.99-3.05,6.8
				c-2.04,1.81-4.7,2.72-8,2.72c-3.3,0-5.87-1.04-7.71-3.13c-1.84-2.08-2.76-4.39-2.76-6.93c0-5.25,3.1-9.79,9.31-13.59
				C972.13,524.17,976.64,522.59,982.16,521.4z M997,575.5c-4.94,0.82-9.31,2.22-13.09,4.21c-3.78,2-6.84,4.8-9.16,8.43
				c-2.33,3.63-3.49,8.43-3.49,14.41c0,7.43,1.55,13.32,4.65,17.67c3.1,4.35,7.66,6.52,13.67,6.52c1.75,0,3.93-0.45,6.54-1.36
				c2.62-0.9,5.14-2.13,7.56-3.67c2.42-1.54,4.46-3.21,6.11-5.03c1.65-1.81,2.47-3.53,2.47-5.16v-37.79
				C1007.03,574.1,1001.94,574.68,997,575.5z"/>
			<path class="st0" d="M1092.26,625.66v-97.86h-21.52v-4.35h21.52v-11.69c0-6.7,0.29-14.04,0.87-22.02
				c0.58-7.97,2.23-15.04,4.95-21.2c3.88-8.52,8.92-14.5,15.12-17.94c6.2-3.44,12.41-5.17,18.62-5.17c8.14,0,14.59,1.9,19.34,5.71
				c4.75,3.81,7.13,7.88,7.13,12.23c0,2.54-0.73,4.76-2.18,6.66s-3.83,2.85-7.13,2.85c-2.72,0-5.04-0.77-6.98-2.31
				c-1.94-1.54-2.91-3.76-2.91-6.66c0-1.81,0.48-3.49,1.45-5.03c0.97-1.54,2.42-2.76,4.36-3.67c0.39-0.18,0.58-0.54,0.58-1.09
				c0-0.72-1.21-1.63-3.64-2.72c-2.43-1.09-5.58-1.63-9.45-1.63c-10.08,0-15.12,6.8-15.12,20.39v53.28h23.56v4.35h-23.56v97.86
				h21.81v4.35h-68.65v-4.35H1092.26z"/>
			<path class="st0" d="M1193.63,628.24c-7.08-3.71-13.14-8.38-18.18-14c-5.04-5.61-8.92-11.78-11.63-18.48
				c-2.72-6.7-4.07-13.05-4.07-19.03c0-5.98,1.35-12.32,4.07-19.03c2.71-6.7,6.59-12.87,11.63-18.49c5.04-5.62,11.1-10.28,18.18-14
				c7.08-3.71,14.98-5.57,23.71-5.57c8.73,0,16.63,1.86,23.71,5.57c7.08,3.72,13.09,8.38,18.03,14c4.94,5.62,8.77,11.78,11.49,18.49
				c2.71,6.71,4.07,13.05,4.07,19.03c0,5.98-1.36,12.33-4.07,19.03c-2.72,6.71-6.54,12.87-11.49,18.48
				c-4.95,5.62-10.96,10.29-18.03,14c-7.08,3.71-14.98,5.57-23.71,5.57C1208.61,633.81,1200.7,631.95,1193.63,628.24z
				 M1189.99,582.43c0,8.15,0.34,15.18,1.02,21.07c0.68,5.89,1.99,10.74,3.93,14.54c1.94,3.81,4.7,6.66,8.29,8.56
				c3.59,1.9,8.29,2.85,14.11,2.85c5.82,0,10.52-0.95,14.11-2.85c3.59-1.9,6.3-4.76,8.14-8.56c1.84-3.81,3.1-8.65,3.78-14.54
				c0.68-5.89,1.02-12.91,1.02-21.07v-11.69c0-7.61-0.34-14.31-1.02-20.12c-0.68-5.8-1.94-10.69-3.78-14.68
				c-1.85-3.98-4.56-6.97-8.14-8.97c-3.59-1.99-8.29-2.99-14.11-2.99c-5.82,0-10.52,1-14.11,2.99c-3.59,2-6.35,4.99-8.29,8.97
				c-1.94,3.99-3.25,8.88-3.93,14.68c-0.68,5.8-1.02,12.51-1.02,20.12V582.43z"/>
			<path class="st0" d="M1338.91,533.37c1.94-2.08,4.36-4.03,7.27-5.85c2.91-1.81,6.2-3.35,9.89-4.62c3.68-1.27,7.85-1.9,12.51-1.9
				c3.29,0,6.54,0.37,9.74,1.09c3.2,0.73,6.01,1.86,8.44,3.4c2.42,1.54,4.41,3.53,5.96,5.98c1.55,2.45,2.33,5.48,2.33,9.11
				c0,4.35-1.45,7.75-4.36,10.19c-2.91,2.45-6.3,3.67-10.18,3.67c-4.46,0-8.05-1.22-10.76-3.67c-2.72-2.45-4.07-5.57-4.07-9.38
				c0-3.62,0.77-6.29,2.33-8.02c1.55-1.72,2.91-2.94,4.07-3.67c0.97-0.36,1.45-0.99,1.45-1.9c0-1.09-0.83-1.77-2.47-2.04
				c-1.65-0.27-3.54-0.41-5.67-0.41c-3.49,0-7.08,0.77-10.76,2.31c-3.69,1.54-7.03,3.58-10.04,6.12c-3.01,2.54-5.43,5.35-7.27,8.43
				c-1.85,3.08-2.76,6.07-2.76,8.97v74.48h20.36v4.35h-65.74v-4.35h20.36v-97.86h-20.36v-4.35h45.38v15.77
				C1335.52,537.4,1336.97,535.45,1338.91,533.37z"/>
			<path class="st0" d="M1475.04,447.33h47.12v178.33h22.11v4.35h-47.12v-14.14c-3.49,4.71-7.85,8.88-13.09,12.5
				c-5.24,3.62-11.74,5.44-19.49,5.44c-5.82,0-11.93-1.54-18.33-4.62c-6.4-3.08-12.22-7.25-17.45-12.51
				c-5.23-5.25-9.55-11.37-12.94-18.35c-3.39-6.97-5.09-14.27-5.09-21.88c0-7.07,1.55-14,4.65-20.8c3.1-6.8,7.17-12.87,12.22-18.21
				c5.04-5.34,10.86-9.65,17.45-12.91c6.59-3.26,13.38-4.89,20.36-4.89c13.96,0,24.53,4.89,31.7,14.68v-82.64h-22.11V447.33z
				 M1441.01,582.98c0,8.88,0.53,16.31,1.6,22.29c1.06,5.98,2.62,10.74,4.65,14.27c2.04,3.53,4.6,6.07,7.71,7.61
				c3.1,1.54,6.69,2.31,10.76,2.31c6.4,0,12.17-1.9,17.31-5.71c5.14-3.81,9.84-9.06,14.11-15.77v-63.61
				c-1.36-2.18-2.96-4.44-4.8-6.8c-1.85-2.35-3.98-4.57-6.4-6.66c-2.43-2.08-5.24-3.76-8.44-5.03c-3.2-1.27-6.84-1.9-10.91-1.9
				c-9.31,0-15.9,3.4-19.78,10.19c-3.88,6.8-5.82,18.62-5.82,35.48V582.98z"/>
		</g>
	</g>
</g>
</svg>
